<svg width="47" height="45" viewBox="0 0 47 45" fill="none" xmlns="http://www.w3.org/2000/svg">
<g clip-path="url(#clip0_3824_3237)">
<path d="M7.19082 7.3501V37.7251C3.43416 33.6751 1.13416 28.3501 1.13416 22.5001C1.13416 16.6501 3.43416 11.3251 7.19082 7.3501Z" fill="white"/>
<path d="M9.64417 10.6499L22.9075 36.6749H9.64417V10.6499Z" fill="white"/>
<path d="M24.1342 33.75L11.1008 8.32495H37.1675L24.1342 33.75Z" fill="white"/>
<path d="M24.1341 0C30.1141 0 35.5575 2.25 39.6208 5.925H8.64746C12.7108 2.25 18.1541 0 24.1341 0Z" fill="white"/>
<path d="M38.6242 36.6749H25.3608L38.6242 10.6499V36.6749Z" fill="white"/>
<path d="M39.6208 39.075C35.5575 42.75 30.1141 45 24.1341 45C18.1541 45 12.7108 42.75 8.64746 39.075H39.6208Z" fill="white"/>
<path d="M41.0775 37.6501V7.3501C44.8342 11.3251 47.1342 16.6501 47.1342 22.5001C47.1342 28.3501 44.8342 33.6751 41.0775 37.6501Z" fill="white"/>
<path d="M9.64417 10.6499L22.9075 36.6749H9.64417V10.6499Z" fill="white"/>
<path d="M24.1342 33.75L11.1008 8.32495H37.1675L24.1342 33.75Z" fill="white"/>
<path d="M25.3608 36.6749L38.6242 10.6499V36.6749H25.3608Z" fill="white"/>
<path d="M11.1008 8.32495H37.1675L24.1342 33.75L11.1008 8.32495Z" fill="white"/>
<g clip-path="url(#clip1_3824_3237)">
<path d="M7.66084 7.3501V37.7251C3.98584 33.6751 1.73584 28.3501 1.73584 22.5001C1.73584 16.6501 3.98584 11.3251 7.66084 7.3501Z" fill="white"/>
<path d="M10.0608 10.6499L23.0358 36.6749H10.0608V10.6499Z" fill="white"/>
<path d="M24.2358 33.75L11.4858 8.32495H36.9858L24.2358 33.75Z" fill="white"/>
<path d="M24.2358 0C30.0858 0 35.4108 2.25 39.3858 5.925H9.08582C13.0608 2.25 18.3858 0 24.2358 0Z" fill="white"/>
<path d="M38.4109 36.6749H25.4359L38.4109 10.6499V36.6749Z" fill="white"/>
<path d="M39.3858 39.075C35.4108 42.75 30.0858 45 24.2358 45C18.3858 45 13.0608 42.75 9.08582 39.075H39.3858Z" fill="white"/>
<path d="M40.8109 37.6501V7.3501C44.4859 11.3251 46.7359 16.6501 46.7359 22.5001C46.7359 28.3501 44.4859 33.6751 40.8109 37.6501Z" fill="white"/>
<path d="M10.0608 10.6499L23.0358 36.6749H10.0608V10.6499Z" fill="white"/>
<path d="M24.2358 33.75L11.4858 8.32495H36.9858L24.2358 33.75Z" fill="white"/>
<path d="M25.4358 36.6749L38.4108 10.6499V36.6749H25.4358Z" fill="white"/>
<path d="M11.4858 8.32495H36.9858L24.2358 33.75L11.4858 8.32495Z" fill="white"/>
</g>
<path d="M6.81472 7.3501V37.7251C3.05806 33.6751 0.758057 28.3501 0.758057 22.5001C0.758057 16.6501 3.05806 11.3251 6.81472 7.3501Z" fill="#02F4BF"/>
<path d="M9.26807 10.6499L22.5314 36.6749H9.26807V10.6499Z" fill="#02F4BF"/>
<path d="M23.7581 33.75L10.7247 8.32495H36.7914L23.7581 33.75Z" fill="#02F4BF"/>
<path d="M23.758 0C29.738 0 35.1814 2.25 39.2447 5.925H8.27136C12.3347 2.25 17.778 0 23.758 0Z" fill="#02F4BF"/>
<path d="M38.248 36.6749H24.9847L38.248 10.6499V36.6749Z" fill="#02F4BF"/>
<path d="M39.2447 39.075C35.1814 42.75 29.738 45 23.758 45C17.778 45 12.3347 42.75 8.27136 39.075H39.2447Z" fill="#02F4BF"/>
<path d="M40.7013 37.6501V7.3501C44.458 11.3251 46.758 16.6501 46.758 22.5001C46.758 28.3501 44.458 33.6751 40.7013 37.6501Z" fill="#02F4BF"/>
<path d="M9.26807 10.6499L22.5314 36.6749H9.26807V10.6499Z" fill="#02F4BF"/>
<path d="M23.7581 33.75L10.7247 8.32495H36.7914L23.7581 33.75Z" fill="#02F4BF"/>
<path d="M24.9847 36.6749L38.2481 10.6499V36.6749H24.9847Z" fill="#02F4BF"/>
<path d="M10.7247 8.32495H36.7914L23.7581 33.75L10.7247 8.32495Z" fill="#02F4BF"/>
</g>
<defs>
<clipPath id="clip0_3824_3237">
<rect width="47" height="45" fill="white"/>
</clipPath>
<clipPath id="clip1_3824_3237">
<rect width="45" height="45" fill="white" transform="translate(1.73584)"/>
</clipPath>
</defs>
</svg>
