<svg width="107" height="100" viewBox="0 0 107 100" fill="none" xmlns="http://www.w3.org/2000/svg">
<path d="M84.1809 9.7749C83.7443 7.48295 81.9708 5.62756 79.7061 5.13643C79.597 5.10914 79.4879 5.10914 79.3514 5.08186C79.3242 5.08186 79.2969 5.02729 79.2696 5H29.2286C29.2014 5.02729 29.1741 5.08186 29.1195 5.08186C26.8548 5.46385 24.9449 7.26467 24.4265 9.55662C24.3992 9.63847 24.3446 9.74761 24.29 9.85675V60.0341C24.3173 60.0887 24.3719 60.116 24.3719 60.1705C24.9176 62.6808 26.4456 64.236 28.9285 64.8636C29.0104 64.8909 29.0649 64.9454 29.1195 65H79.3514C79.406 64.9727 79.4333 64.9181 79.4879 64.8909C81.9708 64.3179 83.4988 62.8172 84.1263 60.3342C84.1536 60.2524 84.1263 60.1433 84.1536 60.0614C84.1536 60.0341 84.2082 60.0068 84.2355 59.9795V9.93861C84.2355 9.88404 84.1809 9.85675 84.1809 9.7749ZM59.0786 38.2606H58.7784C56.5138 38.2606 54.2218 38.2606 51.9572 38.2606C51.848 38.2606 51.7389 38.2606 51.6297 38.2606C51.6297 38.2879 51.6025 38.2879 51.6025 38.3151C51.6025 38.4243 51.6025 38.5334 51.6025 38.6426V59.6794H45.627V38.2879H38.1236V33.513H59.0513V38.2606H59.0786ZM79.215 52.5307C79.1604 53.4584 79.024 54.3588 78.642 55.2319C78.5329 55.5048 78.451 55.7503 78.3146 56.0232C77.8235 57.06 77.0049 57.7967 76.0499 58.397C74.9585 59.0791 73.758 59.4611 72.5029 59.7067C71.1113 59.9795 69.7198 60.0614 68.301 60.0068C67.6188 59.9795 66.9367 59.9795 66.2546 59.8977C64.6447 59.7067 63.0622 59.352 61.5888 58.6426C61.507 58.6153 61.3978 58.4789 61.3978 58.397C61.3978 56.6235 61.3978 54.8499 61.3978 53.0764C61.3978 53.0491 61.3978 53.0218 61.3978 52.9673C61.8344 53.2674 62.2709 53.5675 62.7075 53.8131C63.7716 54.4407 64.9449 54.8772 66.1454 55.1501C67.1823 55.3956 68.2191 55.4229 69.2559 55.3684C70.0472 55.3411 70.8385 55.1501 71.5479 54.7954C72.1754 54.4679 72.6939 54.0314 72.8303 53.2947C72.9667 52.6398 72.9121 51.985 72.5302 51.412C71.9845 50.5935 71.2205 50.075 70.3746 49.6385C69.4196 49.1746 68.4647 48.7654 67.4824 48.3288C66.0363 47.6739 64.6175 46.9645 63.4442 45.8731C62.4892 44.9727 61.7798 43.9086 61.4524 42.6262C61.2614 41.8622 61.2068 41.0982 61.2341 40.3342C61.2614 38.4516 61.9435 36.8417 63.2805 35.5048C64.3719 34.4134 65.7089 33.7585 67.1823 33.3765C68.1918 33.131 69.2014 32.94 70.2382 32.9127C70.9749 32.9127 71.7116 32.8308 72.421 32.8581C73.5397 32.8854 74.6311 32.94 75.7225 33.2128C76.4319 33.4038 77.1686 33.5948 77.878 33.7585C78.0145 33.7858 78.069 33.8677 78.069 34.0314C78.069 35.7231 78.069 37.442 78.069 39.1337C78.069 39.1883 78.069 39.2428 78.0417 39.3247C77.8235 39.1883 77.6325 39.0791 77.4415 38.97C76.5684 38.4789 75.6407 38.1514 74.6857 37.9059C73.6216 37.6603 72.5574 37.4966 71.466 37.5239C70.7293 37.5512 69.9653 37.6603 69.2832 37.9059C68.4374 38.206 67.7553 38.6971 67.4551 39.5975C67.2095 40.307 67.4006 40.9072 67.8371 41.4802C68.3828 42.1896 69.1195 42.6808 69.9108 43.0628C70.9749 43.5812 72.0663 44.0177 73.1031 44.5089C74.3037 45.0819 75.5042 45.6548 76.5138 46.5007C77.3869 47.2374 78.1782 48.0559 78.6147 49.1473C78.8603 49.8022 79.0786 50.4843 79.0786 51.221C79.1877 51.6576 79.2423 52.0941 79.215 52.5307Z" fill="#02F4BF"/>
<path d="M10.3184 83.2158H6.37207V94H3.89355V83.2158H0V81.2031H10.3184V83.2158ZM13.3154 97.8408C13.0811 97.8408 12.876 97.8262 12.7002 97.7969C12.5303 97.7676 12.3398 97.7236 12.1289 97.665L12.4277 95.8018C12.5273 95.8018 12.6533 95.8047 12.8057 95.8105C12.9639 95.8223 13.0898 95.8281 13.1836 95.8281C13.377 95.8281 13.5469 95.7666 13.6934 95.6436C13.8457 95.5264 13.9746 95.3975 14.0801 95.2568C14.1855 95.1162 14.2617 95.0107 14.3086 94.9404C14.3613 94.8701 14.4229 94.7705 14.4932 94.6416L15.0557 93.5957L11.0303 84.4902H13.7021L15.8818 90.0625L16.1455 91.0293L16.5059 90.0801L18.6768 84.4902H21.375L16.5498 95.4238C16.4443 95.6641 16.3066 95.9248 16.1367 96.2061C15.9727 96.4873 15.7646 96.748 15.5127 96.9883C15.2607 97.2285 14.9531 97.4307 14.5898 97.5947C14.2324 97.7588 13.8076 97.8408 13.3154 97.8408ZM22.6582 97.6562V84.4902H24.917L25.0049 85.4219C25.1338 85.2637 25.2744 85.123 25.4268 85C25.5791 84.8711 25.7432 84.7598 25.9189 84.666C26.1299 84.5547 26.3613 84.4697 26.6133 84.4111C26.8711 84.3467 27.1465 84.3145 27.4395 84.3145C28.043 84.3145 28.5762 84.4316 29.0391 84.666C29.502 84.8945 29.8916 85.2197 30.208 85.6416C30.5244 86.0693 30.7617 86.582 30.9199 87.1797C31.084 87.7715 31.166 88.4277 31.166 89.1484V89.333C31.166 90.0244 31.084 90.666 30.9199 91.2578C30.7617 91.8496 30.5273 92.3594 30.2168 92.7871C29.9004 93.2207 29.5107 93.5605 29.0479 93.8066C28.585 94.0527 28.0547 94.1758 27.457 94.1758C27.1406 94.1758 26.8477 94.1406 26.5781 94.0703C26.3145 94.0059 26.0684 93.9092 25.8398 93.7803C25.7051 93.6982 25.5762 93.6074 25.4531 93.5078C25.3301 93.4082 25.2129 93.2969 25.1016 93.1738V97.6562H22.6582ZM28.7227 89.1484C28.7227 88.75 28.6846 88.3779 28.6084 88.0322C28.5381 87.6807 28.4268 87.376 28.2744 87.1182C28.1162 86.8662 27.9141 86.667 27.668 86.5205C27.4277 86.374 27.1348 86.3008 26.7891 86.3008C26.5898 86.3008 26.4082 86.3213 26.2441 86.3623C26.0801 86.3975 25.9307 86.4502 25.7959 86.5205C25.6436 86.6025 25.5088 86.7051 25.3916 86.8281C25.2803 86.9512 25.1836 87.0947 25.1016 87.2588V91.2314C25.1777 91.3838 25.2686 91.5215 25.374 91.6445C25.4854 91.7676 25.6113 91.873 25.752 91.9609C25.8867 92.043 26.042 92.1074 26.2178 92.1543C26.3936 92.1953 26.5898 92.2158 26.8066 92.2158C27.1523 92.2158 27.4453 92.1396 27.6855 91.9873C27.9316 91.835 28.1309 91.627 28.2832 91.3633C28.4355 91.0996 28.5469 90.7949 28.6172 90.4492C28.6875 90.0977 28.7227 89.7256 28.7227 89.333V89.1484ZM38.0479 94.1758C37.3154 94.1758 36.6504 94.0557 36.0527 93.8154C35.4551 93.5752 34.9424 93.2471 34.5146 92.8311C34.0869 92.4209 33.7559 91.9375 33.5215 91.3809C33.293 90.8184 33.1787 90.2178 33.1787 89.5791V89.2275C33.1787 88.501 33.293 87.8389 33.5215 87.2412C33.75 86.6377 34.0693 86.1191 34.4795 85.6855C34.8896 85.252 35.376 84.915 35.9385 84.6748C36.501 84.4346 37.1133 84.3145 37.7754 84.3145C38.4609 84.3145 39.0703 84.4287 39.6035 84.6572C40.1426 84.8799 40.5996 85.1963 40.9746 85.6064C41.3438 86.0166 41.625 86.5117 41.8184 87.0918C42.0117 87.666 42.1084 88.3018 42.1084 88.999V90.0361H35.6572V90.0625C35.7393 90.4434 35.8447 90.751 35.9736 90.9854C36.1025 91.2139 36.2754 91.4219 36.4922 91.6094C36.7148 91.8027 36.9697 91.9521 37.2568 92.0576C37.5439 92.1631 37.8574 92.2158 38.1973 92.2158C38.6777 92.2158 39.1436 92.125 39.5947 91.9434C40.0459 91.7617 40.4121 91.4893 40.6934 91.126L41.915 92.4443C41.6045 92.8838 41.1123 93.2822 40.4385 93.6396C39.7646 93.9971 38.9678 94.1758 38.0479 94.1758ZM37.7578 86.292C37.4824 86.292 37.2305 86.3418 37.002 86.4414C36.7734 86.5352 36.5742 86.6729 36.4043 86.8545C36.2285 87.0361 36.082 87.2529 35.9648 87.5049C35.8477 87.7568 35.7598 88.0381 35.7012 88.3486H39.709V88.1553C39.709 87.8975 39.6621 87.6543 39.5684 87.4258C39.4746 87.1973 39.3457 86.998 39.1816 86.8281C39.0176 86.6641 38.8154 86.5352 38.5752 86.4414C38.3408 86.3418 38.0684 86.292 37.7578 86.292ZM50.8008 90.6602C50.8008 90.4316 50.7598 90.2178 50.6777 90.0186C50.6016 89.8193 50.4697 89.6318 50.2822 89.4561C50.0889 89.2861 49.8369 89.1309 49.5264 88.9902C49.2217 88.8438 48.8408 88.709 48.3838 88.5859C47.6748 88.3926 47.0508 88.1582 46.5117 87.8828C45.9785 87.6074 45.542 87.3057 45.2021 86.9775C44.8623 86.6494 44.6045 86.2861 44.4287 85.8877C44.2588 85.4893 44.1738 85.0557 44.1738 84.5869C44.1738 84.0479 44.2881 83.5586 44.5166 83.1191C44.7451 82.6797 45.0615 82.3047 45.4658 81.9941C45.8701 81.6836 46.3477 81.4463 46.8984 81.2822C47.4492 81.1123 48.0469 81.0273 48.6914 81.0273C49.3594 81.0273 49.9688 81.124 50.5195 81.3174C51.0762 81.5107 51.5537 81.7803 51.9521 82.126C52.3506 82.4775 52.6611 82.8936 52.8838 83.374C53.1064 83.8545 53.2178 84.3818 53.2178 84.9561H50.8096C50.7979 84.6689 50.7451 84.4053 50.6514 84.165C50.5635 83.9248 50.4316 83.7168 50.2559 83.541C50.0742 83.3711 49.8486 83.2393 49.5791 83.1455C49.3154 83.0459 49.0049 82.9961 48.6475 82.9961C48.3193 82.9961 48.0264 83.0371 47.7686 83.1191C47.5166 83.1953 47.3027 83.3037 47.127 83.4443C46.9512 83.5908 46.8164 83.7637 46.7227 83.9629C46.6348 84.1562 46.5908 84.3672 46.5908 84.5957C46.5908 84.8359 46.6494 85.0527 46.7666 85.2461C46.8896 85.4395 47.0654 85.6123 47.2939 85.7646C47.5225 85.9229 47.7979 86.0664 48.1201 86.1953C48.4482 86.3242 48.8174 86.4443 49.2275 86.5557C49.667 86.6787 50.0859 86.8281 50.4844 87.0039C50.8828 87.1797 51.249 87.3818 51.583 87.6104C52.0869 87.9854 52.4883 88.4219 52.7871 88.9199C53.0859 89.418 53.2354 89.9922 53.2354 90.6426C53.2354 91.2051 53.1211 91.7061 52.8926 92.1455C52.6699 92.5791 52.3594 92.9453 51.9609 93.2441C51.5625 93.5488 51.0879 93.7803 50.5371 93.9385C49.9863 94.0908 49.3857 94.167 48.7354 94.167C48.0967 94.167 47.4639 94.0732 46.8369 93.8857C46.2158 93.6924 45.6738 93.4111 45.2109 93.042C44.7715 92.6787 44.4229 92.251 44.165 91.7588C43.9131 91.2666 43.7871 90.6895 43.7871 90.0273H46.2129C46.2246 90.4141 46.292 90.7451 46.415 91.0205C46.5381 91.2959 46.7109 91.5215 46.9336 91.6973C47.1504 91.873 47.4111 92.002 47.7158 92.084C48.0264 92.166 48.3662 92.207 48.7354 92.207C49.0635 92.207 49.3535 92.1689 49.6055 92.0928C49.8633 92.0166 50.0801 91.9111 50.2559 91.7764C50.4316 91.6416 50.5664 91.4805 50.6602 91.293C50.7539 91.0996 50.8008 90.8887 50.8008 90.6602ZM59.2646 92.2246C59.5049 92.2246 59.7334 92.1895 59.9502 92.1191C60.167 92.0488 60.3574 91.9492 60.5215 91.8203C60.6855 91.6914 60.8115 91.5361 60.8994 91.3545C60.9932 91.1729 61.0342 90.9707 61.0225 90.748H63.3252C63.3369 91.2402 63.2344 91.6973 63.0176 92.1191C62.8066 92.541 62.5166 92.9043 62.1475 93.209C61.7783 93.5137 61.3477 93.7539 60.8555 93.9297C60.3691 94.0996 59.8535 94.1846 59.3086 94.1846C58.5703 94.1846 57.9229 94.0615 57.3662 93.8154C56.8096 93.5635 56.3467 93.2207 55.9775 92.7871C55.6025 92.3535 55.3184 91.8467 55.125 91.2666C54.9375 90.6807 54.8438 90.0537 54.8438 89.3857V89.1221C54.8438 88.4541 54.9375 87.8301 55.125 87.25C55.3125 86.6641 55.5938 86.1543 55.9688 85.7207C56.3438 85.2871 56.8066 84.9443 57.3574 84.6924C57.9141 84.4404 58.5586 84.3145 59.291 84.3145C59.877 84.3145 60.4189 84.4023 60.917 84.5781C61.415 84.7539 61.8457 85 62.209 85.3164C62.5664 85.6387 62.8447 86.0283 63.0439 86.4854C63.2432 86.9365 63.3369 87.4434 63.3252 88.0059H61.0225C61.0342 87.7715 60.999 87.5488 60.917 87.3379C60.835 87.127 60.7148 86.9453 60.5566 86.793C60.3984 86.6406 60.208 86.5205 59.9854 86.4326C59.7627 86.3389 59.5195 86.292 59.2559 86.292C58.8691 86.292 58.5498 86.3711 58.2979 86.5293C58.0459 86.6875 57.8467 86.8984 57.7002 87.1621C57.5479 87.4258 57.4395 87.7275 57.375 88.0674C57.3164 88.4072 57.2871 88.7588 57.2871 89.1221V89.3857C57.2871 89.7549 57.3164 90.1123 57.375 90.458C57.4336 90.7979 57.5391 91.0967 57.6914 91.3545C57.8379 91.6182 58.0371 91.8291 58.2891 91.9873C58.5469 92.1455 58.8721 92.2246 59.2646 92.2246ZM72.6943 84.3145C73.0635 84.3145 73.4033 84.3408 73.7139 84.3936C74.0303 84.4404 74.2852 84.4932 74.4785 84.5518L74.1182 86.9863C73.7959 86.9102 73.4648 86.8545 73.125 86.8193C72.791 86.7783 72.4717 86.7578 72.167 86.7578C71.8506 86.7578 71.5635 86.7871 71.3057 86.8457C71.0537 86.8984 70.8281 86.9805 70.6289 87.0918C70.3887 87.2207 70.1836 87.3848 70.0137 87.584C69.8438 87.7832 69.7031 88.0176 69.5918 88.2871V94H67.1484V84.4902H69.4248L69.5215 85.835L69.5391 86.0459C69.9258 85.5068 70.3887 85.085 70.9277 84.7803C71.4668 84.4697 72.0557 84.3145 72.6943 84.3145ZM77.3262 84.4902H82.5029V92.0137H85.0781V94H77.3262V92.0137H80.0332V86.4854H77.3262V84.4902ZM79.8574 82.0557C79.8574 81.8682 79.8896 81.6953 79.9541 81.5371C80.0244 81.373 80.1211 81.2324 80.2441 81.1152C80.3672 81.0039 80.5137 80.916 80.6836 80.8516C80.8594 80.7871 81.0527 80.7549 81.2637 80.7549C81.6973 80.7549 82.04 80.8779 82.292 81.124C82.5498 81.3643 82.6787 81.6748 82.6787 82.0557C82.6787 82.4365 82.5498 82.75 82.292 82.9961C82.04 83.2363 81.6973 83.3564 81.2637 83.3564C81.0527 83.3564 80.8594 83.3242 80.6836 83.2598C80.5137 83.1953 80.3672 83.1045 80.2441 82.9873C80.1211 82.876 80.0244 82.7412 79.9541 82.583C79.8896 82.4189 79.8574 82.2432 79.8574 82.0557ZM87.5215 97.6562V84.4902H89.7803L89.8682 85.4219C89.9971 85.2637 90.1377 85.123 90.29 85C90.4424 84.8711 90.6064 84.7598 90.7822 84.666C90.9932 84.5547 91.2246 84.4697 91.4766 84.4111C91.7344 84.3467 92.0098 84.3145 92.3027 84.3145C92.9062 84.3145 93.4395 84.4316 93.9023 84.666C94.3652 84.8945 94.7549 85.2197 95.0713 85.6416C95.3877 86.0693 95.625 86.582 95.7832 87.1797C95.9473 87.7715 96.0293 88.4277 96.0293 89.1484V89.333C96.0293 90.0244 95.9473 90.666 95.7832 91.2578C95.625 91.8496 95.3906 92.3594 95.0801 92.7871C94.7637 93.2207 94.374 93.5605 93.9111 93.8066C93.4482 94.0527 92.918 94.1758 92.3203 94.1758C92.0039 94.1758 91.7109 94.1406 91.4414 94.0703C91.1777 94.0059 90.9316 93.9092 90.7031 93.7803C90.5684 93.6982 90.4395 93.6074 90.3164 93.5078C90.1934 93.4082 90.0762 93.2969 89.9648 93.1738V97.6562H87.5215ZM93.5859 89.1484C93.5859 88.75 93.5479 88.3779 93.4717 88.0322C93.4014 87.6807 93.29 87.376 93.1377 87.1182C92.9795 86.8662 92.7773 86.667 92.5312 86.5205C92.291 86.374 91.998 86.3008 91.6523 86.3008C91.4531 86.3008 91.2715 86.3213 91.1074 86.3623C90.9434 86.3975 90.7939 86.4502 90.6592 86.5205C90.5068 86.6025 90.3721 86.7051 90.2549 86.8281C90.1436 86.9512 90.0469 87.0947 89.9648 87.2588V91.2314C90.041 91.3838 90.1318 91.5215 90.2373 91.6445C90.3486 91.7676 90.4746 91.873 90.6152 91.9609C90.75 92.043 90.9053 92.1074 91.0811 92.1543C91.2568 92.1953 91.4531 92.2158 91.6699 92.2158C92.0156 92.2158 92.3086 92.1396 92.5488 91.9873C92.7949 91.835 92.9941 91.627 93.1465 91.3633C93.2988 91.0996 93.4102 90.7949 93.4805 90.4492C93.5508 90.0977 93.5859 89.7256 93.5859 89.333V89.1484ZM102.779 82.1611V84.4902H106.33V86.292H102.779V90.3789C102.779 90.7246 102.817 91.0146 102.894 91.249C102.976 91.4775 103.09 91.6592 103.236 91.7939C103.383 91.9346 103.559 92.0342 103.764 92.0928C103.975 92.1514 104.209 92.1807 104.467 92.1807C104.654 92.1807 104.845 92.1719 105.038 92.1543C105.237 92.1367 105.428 92.1133 105.609 92.084C105.785 92.0605 105.949 92.0342 106.102 92.0049C106.26 91.9756 106.395 91.9463 106.506 91.917L106.743 93.5957C106.573 93.6953 106.374 93.7832 106.146 93.8594C105.917 93.9297 105.674 93.9883 105.416 94.0352C105.158 94.082 104.889 94.1172 104.607 94.1406C104.332 94.1699 104.06 94.1846 103.79 94.1846C103.269 94.1846 102.794 94.1172 102.366 93.9824C101.944 93.8418 101.584 93.625 101.285 93.332C100.98 93.0449 100.746 92.6787 100.582 92.2334C100.418 91.7822 100.336 91.2432 100.336 90.6162V86.292H98.165V84.4902H100.336V82.1611H102.779Z" fill="#02F4BF"/>
</svg>
