<svg width="40" height="45" viewBox="0 0 40 45" fill="none" xmlns="http://www.w3.org/2000/svg">
<path d="M0.00352717 0.00792943C0.00352717 0.182377 -0.00440896 0.301318 0.00352717 0.42026C0.3051 3.7189 0.606673 7.01755 0.900309 10.3241C1.31299 15.0025 1.71773 19.6808 2.13041 24.3513C2.59864 29.6006 3.07481 34.8419 3.52717 40.0912C3.55891 40.4718 3.69382 40.6383 4.05095 40.7335C9.13007 42.1291 14.1933 43.5326 19.2724 44.9202C19.6137 45.0154 20.0264 45.0312 20.3676 44.9361C25.4626 43.5405 30.5497 42.1211 35.6447 40.7176C36.0335 40.6066 36.1684 40.4322 36.2002 40.0357C36.3589 38.0533 36.5494 36.063 36.724 34.0807C37.0176 30.7979 37.3033 27.5151 37.5969 24.2323C37.9382 20.3786 38.2874 16.5329 38.6286 12.6792C38.8826 9.8087 39.1524 6.94618 39.4064 4.07573C39.5254 2.72772 39.6286 1.37972 39.7397 0H0.00352717V0.00792943ZM32.0734 11.458C31.8115 14.3602 31.5496 17.2703 31.2877 20.1725C30.9862 23.5108 30.6846 26.849 30.383 30.1794C30.2957 31.1389 30.1687 32.0983 30.1449 33.0657C30.1291 33.5811 29.9068 33.7159 29.4783 33.8349C26.4149 34.6595 23.3595 35.508 20.3041 36.3485C20.1692 36.3881 20.0422 36.4357 19.9073 36.4754C19.8597 36.4516 19.8121 36.4357 19.7565 36.4119C16.4869 35.5238 13.2172 34.6278 9.94749 33.7239C9.81258 33.6842 9.63798 33.4701 9.62211 33.3195C9.39196 30.8455 9.18562 28.3715 8.96341 25.8499H13.9552C14.0425 26.8411 14.1378 27.8482 14.2171 28.8631C14.2886 29.7988 14.2806 29.7988 15.1615 30.0367C16.7408 30.4569 18.328 30.8693 19.9073 31.2816L19.8915 31.2419C21.6215 30.782 23.3516 30.3301 25.0817 29.8384C25.2404 29.7909 25.4229 29.5371 25.4467 29.3627C25.5499 28.6014 25.6055 27.8323 25.6689 27.0711C25.7721 25.842 25.8753 24.6129 25.9864 23.3284H19.8915L19.9073 23.2967C19.8676 23.2967 19.82 23.2967 19.7803 23.2967H8.73326C8.58248 21.6553 8.43963 20.0297 8.28884 18.3566H19.7883C19.828 18.3566 19.8756 18.3566 19.9153 18.3566L19.8994 18.3249H26.4308C26.5816 16.6201 26.7324 14.9549 26.8832 13.258H19.8915L19.9073 13.2263C19.8676 13.2263 19.82 13.2263 19.7803 13.2263C15.8678 13.2342 11.9553 13.2342 8.04282 13.2421C7.98727 13.2421 7.93171 13.2184 7.82854 13.1866C7.68569 11.569 7.53491 9.95143 7.39206 8.28625H19.7803C19.82 8.28625 19.8676 8.28625 19.9073 8.28625L19.8915 8.25453H32.3353C32.248 9.36466 32.1607 10.4113 32.0734 11.458Z" fill="#02F4BF"/>
</svg>
