<svg width="106" height="100" viewBox="0 0 106 100" fill="none" xmlns="http://www.w3.org/2000/svg">
<path d="M23.5244 5C43.5379 5 63.5109 5 83.5244 5C83.5244 25.0135 83.5244 45.027 83.5244 65C63.5514 65 43.5379 65 23.5244 65C23.5244 44.946 23.5244 24.973 23.5244 5ZM77.2044 36.7623C75.989 34.5746 74.3279 33.0756 71.9376 32.549C70.2361 32.1438 68.5345 32.1438 66.833 32.5084C61.3232 33.6428 58.9734 40.287 62.5386 44.7029C63.7945 46.2424 65.4555 47.1742 67.1976 47.9845C68.7371 48.7137 70.3171 49.4024 71.8566 50.1722C72.91 50.6988 73.3556 51.6712 73.2341 52.846C73.1125 54.0209 72.3023 54.6691 71.2894 55.0338C69.0207 55.844 66.3873 55.1148 64.8478 53.2107C64.5237 52.8055 64.1996 52.3599 63.8755 51.9142C62.336 52.8055 60.837 53.6563 59.338 54.5476C60.2699 56.3707 61.5663 57.8292 63.3489 58.8015C66.3873 60.4625 69.5879 60.7056 72.8694 59.8953C75.0166 59.3687 76.8397 58.2748 77.9741 56.2897C80.0808 52.5219 78.8654 47.8224 75.1382 45.5132C73.4771 44.5003 71.6135 43.8116 69.8715 42.9203C69.0207 42.4747 68.1294 42.0695 67.4002 41.5024C66.1037 40.449 66.3468 38.3423 67.8053 37.5321C69.2233 36.7218 71.2084 37.208 72.3023 38.6259C72.5453 38.9095 72.7074 39.2336 72.9505 39.5577C74.3279 38.6259 75.7459 37.6941 77.2044 36.7623ZM39.3245 55.1553C40.1348 56.8974 41.3097 58.2748 42.9707 59.1661C45.1179 60.341 47.4677 60.5435 49.858 60.1789C52.0052 59.8548 53.7877 58.8825 54.9626 56.9379C55.9349 55.3173 56.2185 53.5348 56.2185 51.6306C56.2185 45.4726 56.2185 39.3147 56.2185 33.1566C56.2185 32.9946 56.2185 32.792 56.2185 32.5895C54.3144 32.5895 52.4913 32.5895 50.5872 32.5895C50.5872 32.8325 50.5872 33.0351 50.5872 33.2782C50.5872 39.3552 50.5872 45.3916 50.5872 51.4686C50.5872 52.0358 50.5467 52.6435 50.4657 53.2107C50.3036 54.1425 49.8175 54.8312 48.8857 55.1148C47.1436 55.6415 45.7256 55.1148 44.7128 53.6158C44.4697 53.2107 44.2266 52.8055 43.943 52.4004C42.363 53.3322 40.864 54.2235 39.3245 55.1553Z" fill="#02F4BF"/>
<path d="M6.21387 81.2031H8.68359L8.69238 90.0713C8.68652 90.6807 8.56934 91.2373 8.34082 91.7412C8.11816 92.2393 7.81055 92.6699 7.41797 93.0332C7.02539 93.3965 6.5625 93.6777 6.0293 93.877C5.50195 94.0762 4.93359 94.1758 4.32422 94.1758C3.67969 94.1758 3.09375 94.0938 2.56641 93.9297C2.03906 93.7656 1.58789 93.5195 1.21289 93.1914C0.832031 92.8691 0.536133 92.4619 0.325195 91.9697C0.114258 91.4775 0.00585938 90.9004 0 90.2383H2.47852C2.47852 90.543 2.50781 90.8096 2.56641 91.0381C2.625 91.2666 2.71289 91.46 2.83008 91.6182C2.98242 91.8115 3.18164 91.9551 3.42773 92.0488C3.67383 92.1426 3.97266 92.1895 4.32422 92.1895C4.60547 92.1895 4.86328 92.1367 5.09766 92.0312C5.33203 91.9199 5.53125 91.7705 5.69531 91.583C5.85938 91.3955 5.98535 91.1729 6.07324 90.915C6.16699 90.6514 6.21387 90.3701 6.21387 90.0713V81.2031ZM17.0156 94C16.957 93.8828 16.9072 93.748 16.8662 93.5957C16.8252 93.4434 16.79 93.2822 16.7607 93.1123C16.626 93.2588 16.4707 93.3965 16.2949 93.5254C16.1191 93.6543 15.9258 93.7656 15.7148 93.8594C15.498 93.959 15.2607 94.0352 15.0029 94.0879C14.7451 94.1465 14.4668 94.1758 14.168 94.1758C13.6816 94.1758 13.2334 94.1055 12.8232 93.9648C12.4189 93.8242 12.0703 93.6279 11.7773 93.376C11.4844 93.124 11.2559 92.8252 11.0918 92.4795C10.9277 92.1279 10.8457 91.7471 10.8457 91.3369C10.8457 90.8096 10.9482 90.3438 11.1533 89.9395C11.3584 89.5293 11.666 89.1924 12.0762 88.9287C12.4453 88.6885 12.8994 88.5068 13.4385 88.3838C13.9834 88.2549 14.6074 88.1904 15.3105 88.1904H16.6729V87.6279C16.6729 87.4053 16.6377 87.2061 16.5674 87.0303C16.4971 86.8486 16.3916 86.6934 16.251 86.5645C16.1045 86.4297 15.9199 86.3271 15.6973 86.2568C15.4805 86.1807 15.2256 86.1426 14.9326 86.1426C14.6748 86.1426 14.4521 86.1748 14.2646 86.2393C14.0771 86.2979 13.9248 86.3828 13.8076 86.4941C13.7021 86.5938 13.623 86.7139 13.5703 86.8545C13.5234 86.9951 13.5 87.1504 13.5 87.3203H11.0566C11.0566 86.916 11.1445 86.5322 11.3203 86.1689C11.502 85.8057 11.7656 85.4863 12.1113 85.2109C12.4512 84.9355 12.8672 84.7188 13.3594 84.5605C13.8574 84.3965 14.4258 84.3145 15.0645 84.3145C15.6387 84.3145 16.1719 84.3848 16.6641 84.5254C17.1621 84.666 17.5928 84.874 17.9561 85.1494C18.3193 85.4248 18.6035 85.7734 18.8086 86.1953C19.0137 86.6113 19.1162 87.0947 19.1162 87.6455V91.7236C19.1162 92.2334 19.1484 92.6553 19.2129 92.9893C19.2773 93.3232 19.3711 93.6104 19.4941 93.8506V94H17.0156ZM14.6865 92.2861C14.9326 92.2861 15.1611 92.2568 15.3721 92.1982C15.583 92.1396 15.7734 92.0635 15.9434 91.9697C16.1133 91.876 16.2598 91.7705 16.3828 91.6533C16.5059 91.5303 16.6025 91.4072 16.6729 91.2842V89.6494H15.4248C15.0439 89.6494 14.7188 89.6875 14.4492 89.7637C14.1797 89.834 13.96 89.9336 13.79 90.0625C13.6201 90.1973 13.4941 90.3584 13.4121 90.5459C13.3301 90.7275 13.2891 90.9268 13.2891 91.1436C13.2891 91.3135 13.3184 91.4717 13.377 91.6182C13.4414 91.7588 13.5322 91.8789 13.6494 91.9785C13.7666 92.0723 13.9102 92.1484 14.0801 92.207C14.2559 92.2598 14.458 92.2861 14.6865 92.2861ZM24.9082 94L21.2783 84.4902H23.8271L25.9189 91.1963L26.0508 91.8643L26.1826 91.1963L28.2656 84.4902H30.8145L27.2021 94H24.9082ZM38.6367 94C38.5781 93.8828 38.5283 93.748 38.4873 93.5957C38.4463 93.4434 38.4111 93.2822 38.3818 93.1123C38.2471 93.2588 38.0918 93.3965 37.916 93.5254C37.7402 93.6543 37.5469 93.7656 37.3359 93.8594C37.1191 93.959 36.8818 94.0352 36.624 94.0879C36.3662 94.1465 36.0879 94.1758 35.7891 94.1758C35.3027 94.1758 34.8545 94.1055 34.4443 93.9648C34.04 93.8242 33.6914 93.6279 33.3984 93.376C33.1055 93.124 32.877 92.8252 32.7129 92.4795C32.5488 92.1279 32.4668 91.7471 32.4668 91.3369C32.4668 90.8096 32.5693 90.3438 32.7744 89.9395C32.9795 89.5293 33.2871 89.1924 33.6973 88.9287C34.0664 88.6885 34.5205 88.5068 35.0596 88.3838C35.6045 88.2549 36.2285 88.1904 36.9316 88.1904H38.2939V87.6279C38.2939 87.4053 38.2588 87.2061 38.1885 87.0303C38.1182 86.8486 38.0127 86.6934 37.8721 86.5645C37.7256 86.4297 37.541 86.3271 37.3184 86.2568C37.1016 86.1807 36.8467 86.1426 36.5537 86.1426C36.2959 86.1426 36.0732 86.1748 35.8857 86.2393C35.6982 86.2979 35.5459 86.3828 35.4287 86.4941C35.3232 86.5938 35.2441 86.7139 35.1914 86.8545C35.1445 86.9951 35.1211 87.1504 35.1211 87.3203H32.6777C32.6777 86.916 32.7656 86.5322 32.9414 86.1689C33.123 85.8057 33.3867 85.4863 33.7324 85.2109C34.0723 84.9355 34.4883 84.7188 34.9805 84.5605C35.4785 84.3965 36.0469 84.3145 36.6855 84.3145C37.2598 84.3145 37.793 84.3848 38.2852 84.5254C38.7832 84.666 39.2139 84.874 39.5771 85.1494C39.9404 85.4248 40.2246 85.7734 40.4297 86.1953C40.6348 86.6113 40.7373 87.0947 40.7373 87.6455V91.7236C40.7373 92.2334 40.7695 92.6553 40.834 92.9893C40.8984 93.3232 40.9922 93.6104 41.1152 93.8506V94H38.6367ZM36.3076 92.2861C36.5537 92.2861 36.7822 92.2568 36.9932 92.1982C37.2041 92.1396 37.3945 92.0635 37.5645 91.9697C37.7344 91.876 37.8809 91.7705 38.0039 91.6533C38.127 91.5303 38.2236 91.4072 38.2939 91.2842V89.6494H37.0459C36.665 89.6494 36.3398 89.6875 36.0703 89.7637C35.8008 89.834 35.5811 89.9336 35.4111 90.0625C35.2412 90.1973 35.1152 90.3584 35.0332 90.5459C34.9512 90.7275 34.9102 90.9268 34.9102 91.1436C34.9102 91.3135 34.9395 91.4717 34.998 91.6182C35.0625 91.7588 35.1533 91.8789 35.2705 91.9785C35.3877 92.0723 35.5312 92.1484 35.7012 92.207C35.877 92.2598 36.0791 92.2861 36.3076 92.2861ZM50.0625 90.6602C50.0625 90.4316 50.0215 90.2178 49.9395 90.0186C49.8633 89.8193 49.7314 89.6318 49.5439 89.4561C49.3506 89.2861 49.0986 89.1309 48.7881 88.9902C48.4834 88.8438 48.1025 88.709 47.6455 88.5859C46.9365 88.3926 46.3125 88.1582 45.7734 87.8828C45.2402 87.6074 44.8037 87.3057 44.4639 86.9775C44.124 86.6494 43.8662 86.2861 43.6904 85.8877C43.5205 85.4893 43.4355 85.0557 43.4355 84.5869C43.4355 84.0479 43.5498 83.5586 43.7783 83.1191C44.0068 82.6797 44.3232 82.3047 44.7275 81.9941C45.1318 81.6836 45.6094 81.4463 46.1602 81.2822C46.7109 81.1123 47.3086 81.0273 47.9531 81.0273C48.6211 81.0273 49.2305 81.124 49.7812 81.3174C50.3379 81.5107 50.8154 81.7803 51.2139 82.126C51.6123 82.4775 51.9229 82.8936 52.1455 83.374C52.3682 83.8545 52.4795 84.3818 52.4795 84.9561H50.0713C50.0596 84.6689 50.0068 84.4053 49.9131 84.165C49.8252 83.9248 49.6934 83.7168 49.5176 83.541C49.3359 83.3711 49.1104 83.2393 48.8408 83.1455C48.5771 83.0459 48.2666 82.9961 47.9092 82.9961C47.5811 82.9961 47.2881 83.0371 47.0303 83.1191C46.7783 83.1953 46.5645 83.3037 46.3887 83.4443C46.2129 83.5908 46.0781 83.7637 45.9844 83.9629C45.8965 84.1562 45.8525 84.3672 45.8525 84.5957C45.8525 84.8359 45.9111 85.0527 46.0283 85.2461C46.1514 85.4395 46.3271 85.6123 46.5557 85.7646C46.7842 85.9229 47.0596 86.0664 47.3818 86.1953C47.71 86.3242 48.0791 86.4443 48.4893 86.5557C48.9287 86.6787 49.3477 86.8281 49.7461 87.0039C50.1445 87.1797 50.5107 87.3818 50.8447 87.6104C51.3486 87.9854 51.75 88.4219 52.0488 88.9199C52.3477 89.418 52.4971 89.9922 52.4971 90.6426C52.4971 91.2051 52.3828 91.7061 52.1543 92.1455C51.9316 92.5791 51.6211 92.9453 51.2227 93.2441C50.8242 93.5488 50.3496 93.7803 49.7988 93.9385C49.248 94.0908 48.6475 94.167 47.9971 94.167C47.3584 94.167 46.7256 94.0732 46.0986 93.8857C45.4775 93.6924 44.9355 93.4111 44.4727 93.042C44.0332 92.6787 43.6846 92.251 43.4268 91.7588C43.1748 91.2666 43.0488 90.6895 43.0488 90.0273H45.4746C45.4863 90.4141 45.5537 90.7451 45.6768 91.0205C45.7998 91.2959 45.9727 91.5215 46.1953 91.6973C46.4121 91.873 46.6729 92.002 46.9775 92.084C47.2881 92.166 47.6279 92.207 47.9971 92.207C48.3252 92.207 48.6152 92.1689 48.8672 92.0928C49.125 92.0166 49.3418 91.9111 49.5176 91.7764C49.6934 91.6416 49.8281 91.4805 49.9219 91.293C50.0156 91.0996 50.0625 90.8887 50.0625 90.6602ZM58.5264 92.2246C58.7666 92.2246 58.9951 92.1895 59.2119 92.1191C59.4287 92.0488 59.6191 91.9492 59.7832 91.8203C59.9473 91.6914 60.0732 91.5361 60.1611 91.3545C60.2549 91.1729 60.2959 90.9707 60.2842 90.748H62.5869C62.5986 91.2402 62.4961 91.6973 62.2793 92.1191C62.0684 92.541 61.7783 92.9043 61.4092 93.209C61.04 93.5137 60.6094 93.7539 60.1172 93.9297C59.6309 94.0996 59.1152 94.1846 58.5703 94.1846C57.832 94.1846 57.1846 94.0615 56.6279 93.8154C56.0713 93.5635 55.6084 93.2207 55.2393 92.7871C54.8643 92.3535 54.5801 91.8467 54.3867 91.2666C54.1992 90.6807 54.1055 90.0537 54.1055 89.3857V89.1221C54.1055 88.4541 54.1992 87.8301 54.3867 87.25C54.5742 86.6641 54.8555 86.1543 55.2305 85.7207C55.6055 85.2871 56.0684 84.9443 56.6191 84.6924C57.1758 84.4404 57.8203 84.3145 58.5527 84.3145C59.1387 84.3145 59.6807 84.4023 60.1787 84.5781C60.6768 84.7539 61.1074 85 61.4707 85.3164C61.8281 85.6387 62.1064 86.0283 62.3057 86.4854C62.5049 86.9365 62.5986 87.4434 62.5869 88.0059H60.2842C60.2959 87.7715 60.2607 87.5488 60.1787 87.3379C60.0967 87.127 59.9766 86.9453 59.8184 86.793C59.6602 86.6406 59.4697 86.5205 59.2471 86.4326C59.0244 86.3389 58.7812 86.292 58.5176 86.292C58.1309 86.292 57.8115 86.3711 57.5596 86.5293C57.3076 86.6875 57.1084 86.8984 56.9619 87.1621C56.8096 87.4258 56.7012 87.7275 56.6367 88.0674C56.5781 88.4072 56.5488 88.7588 56.5488 89.1221V89.3857C56.5488 89.7549 56.5781 90.1123 56.6367 90.458C56.6953 90.7979 56.8008 91.0967 56.9531 91.3545C57.0996 91.6182 57.2988 91.8291 57.5508 91.9873C57.8086 92.1455 58.1338 92.2246 58.5264 92.2246ZM71.9561 84.3145C72.3252 84.3145 72.665 84.3408 72.9756 84.3936C73.292 84.4404 73.5469 84.4932 73.7402 84.5518L73.3799 86.9863C73.0576 86.9102 72.7266 86.8545 72.3867 86.8193C72.0527 86.7783 71.7334 86.7578 71.4287 86.7578C71.1123 86.7578 70.8252 86.7871 70.5674 86.8457C70.3154 86.8984 70.0898 86.9805 69.8906 87.0918C69.6504 87.2207 69.4453 87.3848 69.2754 87.584C69.1055 87.7832 68.9648 88.0176 68.8535 88.2871V94H66.4102V84.4902H68.6865L68.7832 85.835L68.8008 86.0459C69.1875 85.5068 69.6504 85.085 70.1895 84.7803C70.7285 84.4697 71.3174 84.3145 71.9561 84.3145ZM76.5879 84.4902H81.7646V92.0137H84.3398V94H76.5879V92.0137H79.2949V86.4854H76.5879V84.4902ZM79.1191 82.0557C79.1191 81.8682 79.1514 81.6953 79.2158 81.5371C79.2861 81.373 79.3828 81.2324 79.5059 81.1152C79.6289 81.0039 79.7754 80.916 79.9453 80.8516C80.1211 80.7871 80.3145 80.7549 80.5254 80.7549C80.959 80.7549 81.3018 80.8779 81.5537 81.124C81.8115 81.3643 81.9404 81.6748 81.9404 82.0557C81.9404 82.4365 81.8115 82.75 81.5537 82.9961C81.3018 83.2363 80.959 83.3564 80.5254 83.3564C80.3145 83.3564 80.1211 83.3242 79.9453 83.2598C79.7754 83.1953 79.6289 83.1045 79.5059 82.9873C79.3828 82.876 79.2861 82.7412 79.2158 82.583C79.1514 82.4189 79.1191 82.2432 79.1191 82.0557ZM86.7832 97.6562V84.4902H89.042L89.1299 85.4219C89.2588 85.2637 89.3994 85.123 89.5518 85C89.7041 84.8711 89.8682 84.7598 90.0439 84.666C90.2549 84.5547 90.4863 84.4697 90.7383 84.4111C90.9961 84.3467 91.2715 84.3145 91.5645 84.3145C92.168 84.3145 92.7012 84.4316 93.1641 84.666C93.627 84.8945 94.0166 85.2197 94.333 85.6416C94.6494 86.0693 94.8867 86.582 95.0449 87.1797C95.209 87.7715 95.291 88.4277 95.291 89.1484V89.333C95.291 90.0244 95.209 90.666 95.0449 91.2578C94.8867 91.8496 94.6523 92.3594 94.3418 92.7871C94.0254 93.2207 93.6357 93.5605 93.1729 93.8066C92.71 94.0527 92.1797 94.1758 91.582 94.1758C91.2656 94.1758 90.9727 94.1406 90.7031 94.0703C90.4395 94.0059 90.1934 93.9092 89.9648 93.7803C89.8301 93.6982 89.7012 93.6074 89.5781 93.5078C89.4551 93.4082 89.3379 93.2969 89.2266 93.1738V97.6562H86.7832ZM92.8477 89.1484C92.8477 88.75 92.8096 88.3779 92.7334 88.0322C92.6631 87.6807 92.5518 87.376 92.3994 87.1182C92.2412 86.8662 92.0391 86.667 91.793 86.5205C91.5527 86.374 91.2598 86.3008 90.9141 86.3008C90.7148 86.3008 90.5332 86.3213 90.3691 86.3623C90.2051 86.3975 90.0557 86.4502 89.9209 86.5205C89.7686 86.6025 89.6338 86.7051 89.5166 86.8281C89.4053 86.9512 89.3086 87.0947 89.2266 87.2588V91.2314C89.3027 91.3838 89.3936 91.5215 89.499 91.6445C89.6104 91.7676 89.7363 91.873 89.877 91.9609C90.0117 92.043 90.167 92.1074 90.3428 92.1543C90.5186 92.1953 90.7148 92.2158 90.9316 92.2158C91.2773 92.2158 91.5703 92.1396 91.8105 91.9873C92.0566 91.835 92.2559 91.627 92.4082 91.3633C92.5605 91.0996 92.6719 90.7949 92.7422 90.4492C92.8125 90.0977 92.8477 89.7256 92.8477 89.333V89.1484ZM102.041 82.1611V84.4902H105.592V86.292H102.041V90.3789C102.041 90.7246 102.079 91.0146 102.155 91.249C102.237 91.4775 102.352 91.6592 102.498 91.7939C102.645 91.9346 102.82 92.0342 103.025 92.0928C103.236 92.1514 103.471 92.1807 103.729 92.1807C103.916 92.1807 104.106 92.1719 104.3 92.1543C104.499 92.1367 104.689 92.1133 104.871 92.084C105.047 92.0605 105.211 92.0342 105.363 92.0049C105.521 91.9756 105.656 91.9463 105.768 91.917L106.005 93.5957C105.835 93.6953 105.636 93.7832 105.407 93.8594C105.179 93.9297 104.936 93.9883 104.678 94.0352C104.42 94.082 104.15 94.1172 103.869 94.1406C103.594 94.1699 103.321 94.1846 103.052 94.1846C102.53 94.1846 102.056 94.1172 101.628 93.9824C101.206 93.8418 100.846 93.625 100.547 93.332C100.242 93.0449 100.008 92.6787 99.8438 92.2334C99.6797 91.7822 99.5977 91.2432 99.5977 90.6162V86.292H97.4268V84.4902H99.5977V82.1611H102.041Z" fill="#02F4BF"/>
</svg>
