<svg width="95" height="129" viewBox="0 0 95 129" fill="none" xmlns="http://www.w3.org/2000/svg">
<g clip-path="url(#clip0_3021_1399)">
<path d="M25.4313 14.3V54.8C20.5312 49.4 17.5312 42.3 17.5312 34.5C17.5312 26.7 20.5312 19.6 25.4313 14.3Z" fill="#02F4BF"/>
<path d="M28.6309 18.7L45.9309 53.4H28.6309V18.7Z" fill="#02F4BF"/>
<path d="M47.5312 49.5001L30.5312 15.6001H64.5312L47.5312 49.5001Z" fill="#02F4BF"/>
<path d="M47.5311 4.5C55.3311 4.5 62.4311 7.5 67.7311 12.4H27.3311C32.6311 7.5 39.7311 4.5 47.5311 4.5Z" fill="#02F4BF"/>
<path d="M66.4309 53.4H49.1309L66.4309 18.7V53.4Z" fill="#02F4BF"/>
<path d="M67.7311 56.6001C62.4311 61.5001 55.3311 64.5001 47.5311 64.5001C39.7311 64.5001 32.6311 61.5001 27.3311 56.6001H67.7311Z" fill="#02F4BF"/>
<path d="M69.6309 54.7001V14.3C74.5309 19.6 77.5309 26.7 77.5309 34.5C77.5309 42.3 74.5309 49.4001 69.6309 54.7001Z" fill="#02F4BF"/>
<path d="M28.6309 18.7002L45.9309 53.4002H28.6309V18.7002Z" fill="#02F4BF"/>
<path d="M47.5312 49.5001L30.5312 15.6001H64.5312L47.5312 49.5001Z" fill="#02F4BF"/>
<path d="M49.1309 53.4002L66.4309 18.7002V53.4002H49.1309Z" fill="#02F4BF"/>
<path d="M30.5312 15.6001H64.5312L47.5312 49.5001L30.5312 15.6001Z" fill="#02F4BF"/>
</g>
<path d="M3.06738 80.7031L4.28027 85.5107L5.66016 80.7031H8.72754V93.5H6.45996V89.7119L6.56543 83.7266L4.88672 89.2812H3.66504L2.16211 83.9639L2.26758 89.7119V93.5H0V80.7031H3.06738ZM16.875 93.5C16.8164 93.3828 16.7666 93.248 16.7256 93.0957C16.6846 92.9434 16.6494 92.7822 16.6201 92.6123C16.4854 92.7588 16.3301 92.8965 16.1543 93.0254C15.9785 93.1543 15.7852 93.2656 15.5742 93.3594C15.3574 93.459 15.1201 93.5352 14.8623 93.5879C14.6045 93.6465 14.3262 93.6758 14.0273 93.6758C13.541 93.6758 13.0928 93.6055 12.6826 93.4648C12.2783 93.3242 11.9297 93.1279 11.6367 92.876C11.3438 92.624 11.1152 92.3252 10.9512 91.9795C10.7871 91.6279 10.7051 91.2471 10.7051 90.8369C10.7051 90.3096 10.8076 89.8438 11.0127 89.4395C11.2178 89.0293 11.5254 88.6924 11.9355 88.4287C12.3047 88.1885 12.7588 88.0068 13.2979 87.8838C13.8428 87.7549 14.4668 87.6904 15.1699 87.6904H16.5322V87.1279C16.5322 86.9053 16.4971 86.7061 16.4268 86.5303C16.3564 86.3486 16.251 86.1934 16.1104 86.0645C15.9639 85.9297 15.7793 85.8271 15.5566 85.7568C15.3398 85.6807 15.085 85.6426 14.792 85.6426C14.5342 85.6426 14.3115 85.6748 14.124 85.7393C13.9365 85.7979 13.7842 85.8828 13.667 85.9941C13.5615 86.0938 13.4824 86.2139 13.4297 86.3545C13.3828 86.4951 13.3594 86.6504 13.3594 86.8203H10.916C10.916 86.416 11.0039 86.0322 11.1797 85.6689C11.3613 85.3057 11.625 84.9863 11.9707 84.7109C12.3105 84.4355 12.7266 84.2188 13.2188 84.0605C13.7168 83.8965 14.2852 83.8145 14.9238 83.8145C15.498 83.8145 16.0312 83.8848 16.5234 84.0254C17.0215 84.166 17.4521 84.374 17.8154 84.6494C18.1787 84.9248 18.4629 85.2734 18.668 85.6953C18.873 86.1113 18.9756 86.5947 18.9756 87.1455V91.2236C18.9756 91.7334 19.0078 92.1553 19.0723 92.4893C19.1367 92.8232 19.2305 93.1104 19.3535 93.3506V93.5H16.875ZM14.5459 91.7861C14.792 91.7861 15.0205 91.7568 15.2314 91.6982C15.4424 91.6396 15.6328 91.5635 15.8027 91.4697C15.9727 91.376 16.1191 91.2705 16.2422 91.1533C16.3652 91.0303 16.4619 90.9072 16.5322 90.7842V89.1494H15.2842C14.9033 89.1494 14.5781 89.1875 14.3086 89.2637C14.0391 89.334 13.8193 89.4336 13.6494 89.5625C13.4795 89.6973 13.3535 89.8584 13.2715 90.0459C13.1895 90.2275 13.1484 90.4268 13.1484 90.6436C13.1484 90.8135 13.1777 90.9717 13.2363 91.1182C13.3008 91.2588 13.3916 91.3789 13.5088 91.4785C13.626 91.5723 13.7695 91.6484 13.9395 91.707C14.1152 91.7598 14.3174 91.7861 14.5459 91.7861ZM26.2266 81.6611V83.9902H29.7773V85.792H26.2266V89.8789C26.2266 90.2246 26.2646 90.5146 26.3408 90.749C26.4229 90.9775 26.5371 91.1592 26.6836 91.2939C26.8301 91.4346 27.0059 91.5342 27.2109 91.5928C27.4219 91.6514 27.6562 91.6807 27.9141 91.6807C28.1016 91.6807 28.292 91.6719 28.4854 91.6543C28.6846 91.6367 28.875 91.6133 29.0566 91.584C29.2324 91.5605 29.3965 91.5342 29.5488 91.5049C29.707 91.4756 29.8418 91.4463 29.9531 91.417L30.1904 93.0957C30.0205 93.1953 29.8213 93.2832 29.5928 93.3594C29.3643 93.4297 29.1211 93.4883 28.8633 93.5352C28.6055 93.582 28.3359 93.6172 28.0547 93.6406C27.7793 93.6699 27.5068 93.6846 27.2373 93.6846C26.7158 93.6846 26.2412 93.6172 25.8135 93.4824C25.3916 93.3418 25.0312 93.125 24.7324 92.832C24.4277 92.5449 24.1934 92.1787 24.0293 91.7334C23.8652 91.2822 23.7832 90.7432 23.7832 90.1162V85.792H21.6123V83.9902H23.7832V81.6611H26.2266ZM37.1689 93.6758C36.4365 93.6758 35.7715 93.5557 35.1738 93.3154C34.5762 93.0752 34.0635 92.7471 33.6357 92.3311C33.208 91.9209 32.877 91.4375 32.6426 90.8809C32.4141 90.3184 32.2998 89.7178 32.2998 89.0791V88.7275C32.2998 88.001 32.4141 87.3389 32.6426 86.7412C32.8711 86.1377 33.1904 85.6191 33.6006 85.1855C34.0107 84.752 34.4971 84.415 35.0596 84.1748C35.6221 83.9346 36.2344 83.8145 36.8965 83.8145C37.582 83.8145 38.1914 83.9287 38.7246 84.1572C39.2637 84.3799 39.7207 84.6963 40.0957 85.1064C40.4648 85.5166 40.7461 86.0117 40.9395 86.5918C41.1328 87.166 41.2295 87.8018 41.2295 88.499V89.5361H34.7783V89.5625C34.8604 89.9434 34.9658 90.251 35.0947 90.4854C35.2236 90.7139 35.3965 90.9219 35.6133 91.1094C35.8359 91.3027 36.0908 91.4521 36.3779 91.5576C36.665 91.6631 36.9785 91.7158 37.3184 91.7158C37.7988 91.7158 38.2646 91.625 38.7158 91.4434C39.167 91.2617 39.5332 90.9893 39.8145 90.626L41.0361 91.9443C40.7256 92.3838 40.2334 92.7822 39.5596 93.1396C38.8857 93.4971 38.0889 93.6758 37.1689 93.6758ZM36.8789 85.792C36.6035 85.792 36.3516 85.8418 36.123 85.9414C35.8945 86.0352 35.6953 86.1729 35.5254 86.3545C35.3496 86.5361 35.2031 86.7529 35.0859 87.0049C34.9688 87.2568 34.8809 87.5381 34.8223 87.8486H38.8301V87.6553C38.8301 87.3975 38.7832 87.1543 38.6895 86.9258C38.5957 86.6973 38.4668 86.498 38.3027 86.3281C38.1387 86.1641 37.9365 86.0352 37.6963 85.9414C37.4619 85.8418 37.1895 85.792 36.8789 85.792ZM50.1943 83.8145C50.5635 83.8145 50.9033 83.8408 51.2139 83.8936C51.5303 83.9404 51.7852 83.9932 51.9785 84.0518L51.6182 86.4863C51.2959 86.4102 50.9648 86.3545 50.625 86.3193C50.291 86.2783 49.9717 86.2578 49.667 86.2578C49.3506 86.2578 49.0635 86.2871 48.8057 86.3457C48.5537 86.3984 48.3281 86.4805 48.1289 86.5918C47.8887 86.7207 47.6836 86.8848 47.5137 87.084C47.3438 87.2832 47.2031 87.5176 47.0918 87.7871V93.5H44.6484V83.9902H46.9248L47.0215 85.335L47.0391 85.5459C47.4258 85.0068 47.8887 84.585 48.4277 84.2803C48.9668 83.9697 49.5557 83.8145 50.1943 83.8145ZM54.8262 83.9902H60.0029V91.5137H62.5781V93.5H54.8262V91.5137H57.5332V85.9854H54.8262V83.9902ZM57.3574 81.5557C57.3574 81.3682 57.3896 81.1953 57.4541 81.0371C57.5244 80.873 57.6211 80.7324 57.7441 80.6152C57.8672 80.5039 58.0137 80.416 58.1836 80.3516C58.3594 80.2871 58.5527 80.2549 58.7637 80.2549C59.1973 80.2549 59.54 80.3779 59.792 80.624C60.0498 80.8643 60.1787 81.1748 60.1787 81.5557C60.1787 81.9365 60.0498 82.25 59.792 82.4961C59.54 82.7363 59.1973 82.8564 58.7637 82.8564C58.5527 82.8564 58.3594 82.8242 58.1836 82.7598C58.0137 82.6953 57.8672 82.6045 57.7441 82.4873C57.6211 82.376 57.5244 82.2412 57.4541 82.083C57.3896 81.9189 57.3574 81.7432 57.3574 81.5557ZM70.9277 93.5C70.8691 93.3828 70.8193 93.248 70.7783 93.0957C70.7373 92.9434 70.7021 92.7822 70.6729 92.6123C70.5381 92.7588 70.3828 92.8965 70.207 93.0254C70.0312 93.1543 69.8379 93.2656 69.627 93.3594C69.4102 93.459 69.1729 93.5352 68.915 93.5879C68.6572 93.6465 68.3789 93.6758 68.0801 93.6758C67.5938 93.6758 67.1455 93.6055 66.7354 93.4648C66.3311 93.3242 65.9824 93.1279 65.6895 92.876C65.3965 92.624 65.168 92.3252 65.0039 91.9795C64.8398 91.6279 64.7578 91.2471 64.7578 90.8369C64.7578 90.3096 64.8604 89.8438 65.0654 89.4395C65.2705 89.0293 65.5781 88.6924 65.9883 88.4287C66.3574 88.1885 66.8115 88.0068 67.3506 87.8838C67.8955 87.7549 68.5195 87.6904 69.2227 87.6904H70.585V87.1279C70.585 86.9053 70.5498 86.7061 70.4795 86.5303C70.4092 86.3486 70.3037 86.1934 70.1631 86.0645C70.0166 85.9297 69.832 85.8271 69.6094 85.7568C69.3926 85.6807 69.1377 85.6426 68.8447 85.6426C68.5869 85.6426 68.3643 85.6748 68.1768 85.7393C67.9893 85.7979 67.8369 85.8828 67.7197 85.9941C67.6143 86.0938 67.5352 86.2139 67.4824 86.3545C67.4355 86.4951 67.4121 86.6504 67.4121 86.8203H64.9688C64.9688 86.416 65.0566 86.0322 65.2324 85.6689C65.4141 85.3057 65.6777 84.9863 66.0234 84.7109C66.3633 84.4355 66.7793 84.2188 67.2715 84.0605C67.7695 83.8965 68.3379 83.8145 68.9766 83.8145C69.5508 83.8145 70.084 83.8848 70.5762 84.0254C71.0742 84.166 71.5049 84.374 71.8682 84.6494C72.2314 84.9248 72.5156 85.2734 72.7207 85.6953C72.9258 86.1113 73.0283 86.5947 73.0283 87.1455V91.2236C73.0283 91.7334 73.0605 92.1553 73.125 92.4893C73.1895 92.8232 73.2832 93.1104 73.4062 93.3506V93.5H70.9277ZM68.5986 91.7861C68.8447 91.7861 69.0732 91.7568 69.2842 91.6982C69.4951 91.6396 69.6855 91.5635 69.8555 91.4697C70.0254 91.376 70.1719 91.2705 70.2949 91.1533C70.418 91.0303 70.5146 90.9072 70.585 90.7842V89.1494H69.3369C68.9561 89.1494 68.6309 89.1875 68.3613 89.2637C68.0918 89.334 67.8721 89.4336 67.7021 89.5625C67.5322 89.6973 67.4062 89.8584 67.3242 90.0459C67.2422 90.2275 67.2012 90.4268 67.2012 90.6436C67.2012 90.8135 67.2305 90.9717 67.2891 91.1182C67.3535 91.2588 67.4443 91.3789 67.5615 91.4785C67.6787 91.5723 67.8223 91.6484 67.9922 91.707C68.168 91.7598 68.3701 91.7861 68.5986 91.7861ZM76.3066 80H81.624V91.5137H84.3486V93.5H76.3066V91.5137H79.1543V81.9951H76.3066V80ZM16.084 113.675C16.084 112.954 16.166 112.295 16.3301 111.697C16.5 111.1 16.7461 110.587 17.0684 110.159C17.3906 109.731 17.7803 109.4 18.2373 109.166C18.7002 108.932 19.2275 108.814 19.8193 108.814C20.3174 108.814 20.7539 108.905 21.1289 109.087C21.5098 109.263 21.8467 109.515 22.1396 109.843V105H24.5918V118.5H22.3857L22.2627 117.507C21.9639 117.876 21.6123 118.163 21.208 118.368C20.8037 118.573 20.335 118.676 19.8018 118.676C19.2217 118.676 18.7002 118.556 18.2373 118.315C17.7803 118.069 17.3936 117.732 17.0771 117.305C16.7549 116.877 16.5088 116.37 16.3389 115.784C16.1689 115.192 16.084 114.551 16.084 113.859V113.675ZM18.5273 113.859C18.5273 114.258 18.5596 114.63 18.624 114.976C18.6943 115.315 18.8057 115.611 18.958 115.863C19.1104 116.121 19.3066 116.323 19.5469 116.47C19.7871 116.616 20.0801 116.689 20.4258 116.689C20.8477 116.689 21.1963 116.599 21.4717 116.417C21.7529 116.235 21.9756 115.986 22.1396 115.67V111.82C21.9756 111.498 21.7559 111.249 21.4805 111.073C21.2051 110.892 20.8594 110.801 20.4434 110.801C20.0977 110.801 19.8018 110.877 19.5557 111.029C19.3154 111.176 19.1191 111.378 18.9668 111.636C18.8145 111.899 18.7031 112.207 18.6328 112.559C18.5625 112.904 18.5273 113.276 18.5273 113.675V113.859ZM31.7637 118.676C31.0312 118.676 30.3662 118.556 29.7686 118.315C29.1709 118.075 28.6582 117.747 28.2305 117.331C27.8027 116.921 27.4717 116.438 27.2373 115.881C27.0088 115.318 26.8945 114.718 26.8945 114.079V113.728C26.8945 113.001 27.0088 112.339 27.2373 111.741C27.4658 111.138 27.7852 110.619 28.1953 110.186C28.6055 109.752 29.0918 109.415 29.6543 109.175C30.2168 108.935 30.8291 108.814 31.4912 108.814C32.1768 108.814 32.7861 108.929 33.3193 109.157C33.8584 109.38 34.3154 109.696 34.6904 110.106C35.0596 110.517 35.3408 111.012 35.5342 111.592C35.7275 112.166 35.8242 112.802 35.8242 113.499V114.536H29.373V114.562C29.4551 114.943 29.5605 115.251 29.6895 115.485C29.8184 115.714 29.9912 115.922 30.208 116.109C30.4307 116.303 30.6855 116.452 30.9727 116.558C31.2598 116.663 31.5732 116.716 31.9131 116.716C32.3936 116.716 32.8594 116.625 33.3105 116.443C33.7617 116.262 34.1279 115.989 34.4092 115.626L35.6309 116.944C35.3203 117.384 34.8281 117.782 34.1543 118.14C33.4805 118.497 32.6836 118.676 31.7637 118.676ZM31.4736 110.792C31.1982 110.792 30.9463 110.842 30.7178 110.941C30.4893 111.035 30.29 111.173 30.1201 111.354C29.9443 111.536 29.7979 111.753 29.6807 112.005C29.5635 112.257 29.4756 112.538 29.417 112.849H33.4248V112.655C33.4248 112.397 33.3779 112.154 33.2842 111.926C33.1904 111.697 33.0615 111.498 32.8975 111.328C32.7334 111.164 32.5312 111.035 32.291 110.941C32.0566 110.842 31.7842 110.792 31.4736 110.792ZM44.0947 115.89C44.0947 115.743 44.0596 115.614 43.9893 115.503C43.9248 115.392 43.8076 115.286 43.6377 115.187C43.4619 115.093 43.2305 115.005 42.9434 114.923C42.6562 114.841 42.293 114.759 41.8535 114.677C41.2969 114.565 40.7871 114.428 40.3242 114.264C39.8672 114.094 39.4746 113.889 39.1465 113.648C38.8184 113.414 38.5605 113.142 38.373 112.831C38.1914 112.521 38.1006 112.163 38.1006 111.759C38.1006 111.366 38.1943 110.991 38.3818 110.634C38.5693 110.276 38.8389 109.963 39.1904 109.693C39.542 109.424 39.9697 109.21 40.4736 109.052C40.9775 108.894 41.5459 108.814 42.1787 108.814C42.8408 108.814 43.4355 108.894 43.9629 109.052C44.4902 109.204 44.9385 109.415 45.3076 109.685C45.6709 109.96 45.9492 110.285 46.1426 110.66C46.3359 111.035 46.4326 111.442 46.4326 111.882H43.9893C43.9893 111.724 43.9629 111.577 43.9102 111.442C43.8574 111.302 43.7783 111.176 43.6729 111.064C43.5264 110.918 43.3271 110.801 43.0752 110.713C42.8291 110.625 42.5303 110.581 42.1787 110.581C41.8799 110.581 41.6191 110.61 41.3965 110.669C41.1738 110.728 40.9922 110.81 40.8516 110.915C40.7227 111.009 40.623 111.12 40.5527 111.249C40.4883 111.372 40.4561 111.504 40.4561 111.645C40.4561 111.785 40.4854 111.917 40.5439 112.04C40.6025 112.157 40.708 112.263 40.8604 112.356C41.0068 112.456 41.209 112.547 41.4668 112.629C41.7246 112.705 42.0527 112.772 42.4512 112.831C43.0254 112.925 43.5586 113.045 44.0508 113.191C44.543 113.338 44.9678 113.525 45.3252 113.754C45.6826 113.988 45.9609 114.272 46.1602 114.606C46.3652 114.935 46.4678 115.327 46.4678 115.784C46.4678 116.206 46.3652 116.596 46.1602 116.953C45.9609 117.305 45.6768 117.609 45.3076 117.867C44.9326 118.125 44.4814 118.327 43.9541 118.474C43.4268 118.614 42.8379 118.685 42.1875 118.685C41.4727 118.685 40.8398 118.591 40.2891 118.403C39.7441 118.216 39.2871 117.97 38.918 117.665C38.5488 117.366 38.2676 117.026 38.0742 116.646C37.8867 116.259 37.793 115.872 37.793 115.485H40.1221C40.1396 115.743 40.21 115.966 40.333 116.153C40.4561 116.335 40.6143 116.481 40.8076 116.593C41.001 116.71 41.2207 116.795 41.4668 116.848C41.7188 116.9 41.9766 116.927 42.2402 116.927C42.5566 116.927 42.832 116.9 43.0664 116.848C43.3066 116.789 43.5029 116.713 43.6553 116.619C43.8018 116.525 43.9102 116.417 43.9805 116.294C44.0566 116.171 44.0947 116.036 44.0947 115.89ZM49.4209 108.99H54.5977V116.514H57.1729V118.5H49.4209V116.514H52.1279V110.985H49.4209V108.99ZM51.9521 106.556C51.9521 106.368 51.9844 106.195 52.0488 106.037C52.1191 105.873 52.2158 105.732 52.3389 105.615C52.4619 105.504 52.6084 105.416 52.7783 105.352C52.9541 105.287 53.1475 105.255 53.3584 105.255C53.792 105.255 54.1348 105.378 54.3867 105.624C54.6445 105.864 54.7734 106.175 54.7734 106.556C54.7734 106.937 54.6445 107.25 54.3867 107.496C54.1348 107.736 53.792 107.856 53.3584 107.856C53.1475 107.856 52.9541 107.824 52.7783 107.76C52.6084 107.695 52.4619 107.604 52.3389 107.487C52.2158 107.376 52.1191 107.241 52.0488 107.083C51.9844 106.919 51.9521 106.743 51.9521 106.556ZM59.335 113.675C59.335 112.954 59.4229 112.295 59.5986 111.697C59.7803 111.1 60.0381 110.587 60.3721 110.159C60.7061 109.731 61.1104 109.4 61.585 109.166C62.0596 108.932 62.5957 108.814 63.1934 108.814C63.5156 108.814 63.8086 108.847 64.0723 108.911C64.3418 108.97 64.585 109.061 64.8018 109.184C64.9658 109.271 65.1182 109.377 65.2588 109.5C65.3994 109.617 65.5283 109.749 65.6455 109.896L65.7422 108.99H67.9658V118.192C67.9658 118.837 67.8545 119.411 67.6318 119.915C67.415 120.419 67.1104 120.844 66.7178 121.189C66.3193 121.535 65.8418 121.796 65.2852 121.972C64.7344 122.153 64.125 122.244 63.457 122.244C63.1699 122.244 62.8623 122.215 62.5342 122.156C62.2061 122.098 61.8809 122.007 61.5586 121.884C61.2363 121.761 60.9316 121.603 60.6445 121.409C60.3574 121.222 60.1113 120.996 59.9062 120.732L61.0049 119.247C61.1631 119.429 61.333 119.587 61.5146 119.722C61.6963 119.862 61.8867 119.977 62.0859 120.064C62.2793 120.152 62.4785 120.217 62.6836 120.258C62.8945 120.305 63.1113 120.328 63.334 120.328C63.6914 120.328 64.0078 120.278 64.2832 120.179C64.5645 120.079 64.7988 119.933 64.9863 119.739C65.1562 119.563 65.2852 119.347 65.373 119.089C65.4668 118.831 65.5137 118.541 65.5137 118.219V117.674C65.3965 117.803 65.2734 117.92 65.1445 118.025C65.0156 118.131 64.8779 118.225 64.7314 118.307C64.5146 118.424 64.2744 118.515 64.0107 118.579C63.7529 118.644 63.4746 118.676 63.1758 118.676C62.584 118.676 62.0508 118.556 61.5762 118.315C61.1074 118.069 60.7061 117.732 60.3721 117.305C60.0381 116.877 59.7803 116.37 59.5986 115.784C59.4229 115.192 59.335 114.551 59.335 113.859V113.675ZM61.7871 113.859C61.7871 114.258 61.8252 114.63 61.9014 114.976C61.9834 115.315 62.1064 115.611 62.2705 115.863C62.4346 116.121 62.6426 116.323 62.8945 116.47C63.1465 116.616 63.4453 116.689 63.791 116.689C64.002 116.689 64.1924 116.669 64.3623 116.628C64.5381 116.587 64.6963 116.528 64.8369 116.452C64.9834 116.37 65.1123 116.271 65.2236 116.153C65.335 116.036 65.4316 115.904 65.5137 115.758V111.732C65.4258 111.568 65.3203 111.425 65.1973 111.302C65.0742 111.179 64.9336 111.079 64.7754 111.003C64.6406 110.938 64.4912 110.889 64.3271 110.854C64.1689 110.818 63.9961 110.801 63.8086 110.801C63.4629 110.801 63.1641 110.877 62.9121 111.029C62.6602 111.176 62.4521 111.378 62.2881 111.636C62.1182 111.899 61.9922 112.207 61.9102 112.559C61.8281 112.904 61.7871 113.276 61.7871 113.675V113.859ZM70.3916 118.5V108.99H72.6064L72.7559 110.309C72.8789 110.133 73.0137 109.972 73.1602 109.825C73.3066 109.679 73.4619 109.547 73.626 109.43C73.9072 109.23 74.2148 109.078 74.5488 108.973C74.8828 108.867 75.2373 108.814 75.6123 108.814C76.0928 108.814 76.5322 108.885 76.9307 109.025C77.3291 109.166 77.6748 109.389 77.9678 109.693C78.2549 110.004 78.4775 110.402 78.6357 110.889C78.7998 111.369 78.8818 111.955 78.8818 112.646V118.5H76.4385V112.682C76.4385 112.307 76.3945 111.999 76.3066 111.759C76.2246 111.513 76.1045 111.319 75.9463 111.179C75.7881 111.038 75.5977 110.941 75.375 110.889C75.1523 110.83 74.9004 110.801 74.6191 110.801C74.3848 110.801 74.168 110.827 73.9688 110.88C73.7754 110.933 73.6025 111.012 73.4502 111.117C73.3271 111.193 73.2158 111.284 73.1162 111.39C73.0166 111.495 72.9258 111.612 72.8438 111.741V118.5H70.3916Z" fill="#02F4BF"/>
<defs>
<clipPath id="clip0_3021_1399">
<rect width="60" height="60" fill="white" transform="translate(17.5312 4.5)"/>
</clipPath>
</defs>
</svg>
