<svg width="49" height="45" viewBox="0 0 49 45" fill="none" xmlns="http://www.w3.org/2000/svg">
<g clip-path="url(#clip0_3021_1828)">
<path fill-rule="evenodd" clip-rule="evenodd" d="M47.0521 11.8229L42.7917 17.7812L38.5312 11.8229H40.8542C40.6771 7.39583 37.0208 3.85417 32.5521 3.85417C28.7812 3.85417 25.5833 6.38541 24.5729 9.83333C23.3437 9.4375 22.0729 9.1875 20.7812 9.07291C20.9271 8.52083 21.1146 7.96875 21.3437 7.4375C21.9583 5.98958 22.8333 4.6875 23.9479 3.57292C25.0625 2.45833 26.3646 1.57292 27.8125 0.96875C29.3125 0.322917 30.9062 0 32.5521 0C34.1979 0 35.7917 0.322917 37.2917 0.958333C38.7396 1.57292 40.0417 2.44792 41.1562 3.5625C42.2708 4.67708 43.1458 5.97916 43.7604 7.42708C44.3542 8.82291 44.6771 10.3021 44.7083 11.8229H47.0521Z" fill="#02F4BF"/>
<path fill-rule="evenodd" clip-rule="evenodd" d="M41.0938 44.9999V42.4374H26.4062C26.5104 42.3853 26.6146 42.3437 26.7188 42.2916C28.3125 41.5312 29.7812 40.5416 31.0938 39.3333C31.2708 39.1666 31.4375 39.0103 31.5937 38.8541C31.7708 38.677 31.9583 38.4895 32.1354 38.2916C32.3438 38.0624 32.5521 37.8228 32.7396 37.5833H41.0938V35.0208L48.0729 40.0103L41.0938 44.9999Z" fill="#02F4BF"/>
<path fill-rule="evenodd" clip-rule="evenodd" d="M35.6771 26.4897C35.6771 28.7084 35.2396 30.8647 34.3854 32.8959C33.6563 34.6251 32.6354 36.2084 31.3646 37.5938C31.1979 37.7709 31.0313 37.948 30.8646 38.1251C30.7083 38.2813 30.5521 38.4272 30.3958 38.5834C29.1667 39.7188 27.7917 40.6459 26.2917 41.3647C26.0833 41.4688 25.8646 41.5626 25.6458 41.6563C25.6354 41.6563 25.6354 41.6667 25.625 41.6667C24.375 42.198 23.0313 42.4584 21.6667 42.4584H0V37.6147H20.1146C26.1979 37.6147 31.1875 32.7501 31.2708 26.6667C31.2708 26.6147 31.2708 26.5626 31.2708 26.5105C31.2708 19.8647 25.875 14.4688 19.2292 14.4688C12.5833 14.448 7.1875 19.8334 7.1875 26.4897H9.97917L4.98958 33.4688L0 26.4897H2.79167C2.79167 24.2709 3.22917 22.1147 4.08333 20.0834C4.91667 18.1251 6.09375 16.3647 7.60417 14.8542C9.11459 13.3438 10.875 12.1563 12.8333 11.3334C14.8646 10.4792 17.0208 10.0417 19.2396 10.0417C19.6875 10.0417 20.125 10.0626 20.5625 10.0938C21.8542 10.198 23.1146 10.448 24.3438 10.8542C24.7813 11.0001 25.2083 11.1563 25.6354 11.3438C27.5938 12.1772 29.3542 13.3542 30.8646 14.8647C32.375 16.3751 33.5625 18.1355 34.3854 20.0938C35.2396 22.1147 35.6771 24.2709 35.6771 26.4897Z" fill="#02F4BF"/>
</g>
<defs>
<clipPath id="clip0_3021_1828">
<rect width="48.0833" height="45" fill="white"/>
</clipPath>
</defs>
</svg>
