<svg width="46" height="45" viewBox="0 0 46 45" fill="none" xmlns="http://www.w3.org/2000/svg">
<path d="M3.99492 1.5019L41.5936 1.5019C42.9724 1.50214 44.0905 2.62276 44.0905 4.00507L44.0905 40.9952C44.0903 42.3774 42.9723 43.4982 41.5936 43.4984L3.99492 43.4984C2.61606 43.4984 1.49825 42.3776 1.4981 40.9952L1.4981 4.00507C1.4981 2.62261 2.61596 1.5019 3.99492 1.5019Z" fill="#E15544" stroke="#E15544" stroke-width="3"/>
<path d="M21.3003 27.5552C21.3003 26.8805 21.3149 26.3085 21.3442 25.8392C21.3832 25.3698 21.4661 24.9445 21.5929 24.5631C21.7197 24.1916 21.9099 23.8493 22.1635 23.5364C22.417 23.2138 22.773 22.8715 23.2314 22.5097C23.563 22.2066 23.8947 21.8888 24.2263 21.5564C24.5579 21.2142 24.8602 20.8622 25.1333 20.5004C25.3967 20.1484 25.6112 19.7866 25.777 19.415C25.9428 19.0434 26.0257 18.6719 26.0257 18.3003C26.0257 17.8505 25.9623 17.4643 25.8355 17.1416C25.7088 16.8092 25.5283 16.5354 25.2942 16.3203C25.0504 16.1247 24.7529 15.978 24.4018 15.8803C24.0605 15.7825 23.6655 15.7336 23.2168 15.7336C22.8657 15.7336 22.5243 15.7825 22.1927 15.8803C21.8611 15.9683 21.5685 16.1149 21.3149 16.3203C21.0516 16.5256 20.837 16.7896 20.6712 17.1123C20.5152 17.435 20.4323 17.8212 20.4225 18.271L16.3408 18.271C16.3505 17.2736 16.5358 16.4083 16.8967 15.6749C17.2576 14.9318 17.7452 14.3158 18.3597 13.8269C18.9741 13.338 19.6959 12.9762 20.5249 12.7415C21.3539 12.4971 22.2512 12.3749 23.2168 12.3749C24.2994 12.3749 25.2699 12.4971 26.1281 12.7415C26.9864 12.986 27.713 13.3478 28.308 13.8269C28.8932 14.3158 29.3418 14.9171 29.6539 15.6309C29.966 16.3447 30.1221 17.171 30.1221 18.1096C30.1221 18.8039 30.0051 19.4395 29.771 20.0164C29.5369 20.5835 29.2345 21.1115 28.8639 21.6004C28.4933 22.0991 28.069 22.5733 27.5911 23.0231C27.123 23.4631 26.6499 23.8933 26.172 24.3138C25.8794 24.6071 25.6502 24.8662 25.4844 25.0911C25.3186 25.316 25.2016 25.5458 25.1333 25.7805C25.0553 26.0152 25.0065 26.2743 24.987 26.5578C24.9675 26.8316 24.9578 27.1641 24.9578 27.5552L21.3003 27.5552ZM20.7005 31.9993C20.7005 31.3539 20.9102 30.8162 21.3296 30.3859C21.7489 29.9459 22.3293 29.7259 23.0705 29.7259C23.7922 29.7259 24.3677 29.9459 24.7968 30.3859C25.2357 30.8162 25.4552 31.3539 25.4552 31.9993C25.4552 32.6251 25.2357 33.1531 24.7968 33.5833C24.3677 34.0038 23.7922 34.214 23.0705 34.214C22.3293 34.214 21.7489 34.0038 21.3296 33.5833C20.9102 33.1531 20.7005 32.6251 20.7005 31.9993Z" fill="#02F4BF"/>
</svg>
