<svg width="88" height="100" viewBox="0 0 88 100" fill="none" xmlns="http://www.w3.org/2000/svg">
<path d="M43.9999 44.5602C60.721 44.5602 74.2761 39.3846 74.2761 33.0002C74.2761 26.6158 60.721 21.4402 43.9999 21.4402C27.2788 21.4402 13.7236 26.6158 13.7236 33.0002C13.7236 39.3846 27.2788 44.5602 43.9999 44.5602Z" stroke="#02F4BF" stroke-width="2.5"/>
<path d="M33.9886 38.7802C42.3492 53.2611 53.6089 62.4123 59.138 59.2201C64.6671 56.0279 62.3717 41.7011 54.0112 27.2202C45.6506 12.7393 34.3908 3.58804 28.8618 6.78024C23.3327 9.97245 25.6281 24.2993 33.9886 38.7802Z" stroke="#02F4BF" stroke-width="2.5"/>
<path d="M33.9878 27.22C25.6272 41.7009 23.3319 56.0277 28.8609 59.2199C34.39 62.4121 45.6498 53.2609 54.0103 38.78C62.3709 24.2991 64.6662 9.97227 59.1372 6.78006C53.6081 3.58786 42.3483 12.7391 33.9878 27.22Z" stroke="#02F4BF" stroke-width="2.5"/>
<path d="M44 27.8577C46.84 27.8578 49.1426 30.1603 49.1426 33.0002C49.1425 35.8401 46.8399 38.1427 44 38.1428C41.16 38.1428 38.8575 35.8402 38.8574 33.0002C38.8574 30.1602 41.1599 27.8577 44 27.8577Z" fill="#02F4BF" stroke="#02F4BF"/>
<path d="M21.9932 89.2188H20.1211V94H17.6514V81.2031H21.9404C22.6494 81.2031 23.291 81.2881 23.8652 81.458C24.4395 81.6221 24.9316 81.8652 25.3418 82.1875C25.7461 82.5098 26.0566 82.9111 26.2734 83.3916C26.4961 83.8721 26.6074 84.4287 26.6074 85.0615C26.6074 85.5186 26.5518 85.9316 26.4404 86.3008C26.335 86.6641 26.1826 86.9893 25.9834 87.2764C25.7783 87.5693 25.5322 87.8242 25.2451 88.041C24.9639 88.2578 24.6475 88.4453 24.2959 88.6035L27.0469 93.8857V94H24.4014L21.9932 89.2188ZM20.1211 87.2148H21.9492C22.3301 87.2148 22.6641 87.1621 22.9512 87.0566C23.2441 86.9453 23.4814 86.7871 23.6631 86.582C23.8154 86.418 23.9297 86.2217 24.0059 85.9932C24.0879 85.7646 24.1289 85.5098 24.1289 85.2285C24.1289 84.8887 24.0762 84.5898 23.9707 84.332C23.8711 84.0684 23.7188 83.8516 23.5137 83.6816C23.332 83.5293 23.1094 83.4121 22.8457 83.3301C22.582 83.248 22.2803 83.207 21.9404 83.207H20.1211V87.2148ZM33.1641 94.1758C32.4316 94.1758 31.7666 94.0557 31.1689 93.8154C30.5713 93.5752 30.0586 93.2471 29.6309 92.8311C29.2031 92.4209 28.8721 91.9375 28.6377 91.3809C28.4092 90.8184 28.2949 90.2178 28.2949 89.5791V89.2275C28.2949 88.501 28.4092 87.8389 28.6377 87.2412C28.8662 86.6377 29.1855 86.1191 29.5957 85.6855C30.0059 85.252 30.4922 84.915 31.0547 84.6748C31.6172 84.4346 32.2295 84.3145 32.8916 84.3145C33.5771 84.3145 34.1865 84.4287 34.7197 84.6572C35.2588 84.8799 35.7158 85.1963 36.0908 85.6064C36.46 86.0166 36.7412 86.5117 36.9346 87.0918C37.1279 87.666 37.2246 88.3018 37.2246 88.999V90.0361H30.7734V90.0625C30.8555 90.4434 30.9609 90.751 31.0898 90.9854C31.2188 91.2139 31.3916 91.4219 31.6084 91.6094C31.8311 91.8027 32.0859 91.9521 32.373 92.0576C32.6602 92.1631 32.9736 92.2158 33.3135 92.2158C33.7939 92.2158 34.2598 92.125 34.7109 91.9434C35.1621 91.7617 35.5283 91.4893 35.8096 91.126L37.0312 92.4443C36.7207 92.8838 36.2285 93.2822 35.5547 93.6396C34.8809 93.9971 34.084 94.1758 33.1641 94.1758ZM32.874 86.292C32.5986 86.292 32.3467 86.3418 32.1182 86.4414C31.8896 86.5352 31.6904 86.6729 31.5205 86.8545C31.3447 87.0361 31.1982 87.2529 31.0811 87.5049C30.9639 87.7568 30.876 88.0381 30.8174 88.3486H34.8252V88.1553C34.8252 87.8975 34.7783 87.6543 34.6846 87.4258C34.5908 87.1973 34.4619 86.998 34.2979 86.8281C34.1338 86.6641 33.9316 86.5352 33.6914 86.4414C33.457 86.3418 33.1846 86.292 32.874 86.292ZM45.3018 94C45.2432 93.8828 45.1934 93.748 45.1523 93.5957C45.1113 93.4434 45.0762 93.2822 45.0469 93.1123C44.9121 93.2588 44.7568 93.3965 44.5811 93.5254C44.4053 93.6543 44.2119 93.7656 44.001 93.8594C43.7842 93.959 43.5469 94.0352 43.2891 94.0879C43.0312 94.1465 42.7529 94.1758 42.4541 94.1758C41.9678 94.1758 41.5195 94.1055 41.1094 93.9648C40.7051 93.8242 40.3564 93.6279 40.0635 93.376C39.7705 93.124 39.542 92.8252 39.3779 92.4795C39.2139 92.1279 39.1318 91.7471 39.1318 91.3369C39.1318 90.8096 39.2344 90.3438 39.4395 89.9395C39.6445 89.5293 39.9521 89.1924 40.3623 88.9287C40.7314 88.6885 41.1855 88.5068 41.7246 88.3838C42.2695 88.2549 42.8936 88.1904 43.5967 88.1904H44.959V87.6279C44.959 87.4053 44.9238 87.2061 44.8535 87.0303C44.7832 86.8486 44.6777 86.6934 44.5371 86.5645C44.3906 86.4297 44.2061 86.3271 43.9834 86.2568C43.7666 86.1807 43.5117 86.1426 43.2188 86.1426C42.9609 86.1426 42.7383 86.1748 42.5508 86.2393C42.3633 86.2979 42.2109 86.3828 42.0938 86.4941C41.9883 86.5938 41.9092 86.7139 41.8564 86.8545C41.8096 86.9951 41.7861 87.1504 41.7861 87.3203H39.3428C39.3428 86.916 39.4307 86.5322 39.6064 86.1689C39.7881 85.8057 40.0518 85.4863 40.3975 85.2109C40.7373 84.9355 41.1533 84.7188 41.6455 84.5605C42.1436 84.3965 42.7119 84.3145 43.3506 84.3145C43.9248 84.3145 44.458 84.3848 44.9502 84.5254C45.4482 84.666 45.8789 84.874 46.2422 85.1494C46.6055 85.4248 46.8896 85.7734 47.0947 86.1953C47.2998 86.6113 47.4023 87.0947 47.4023 87.6455V91.7236C47.4023 92.2334 47.4346 92.6553 47.499 92.9893C47.5635 93.3232 47.6572 93.6104 47.7803 93.8506V94H45.3018ZM42.9727 92.2861C43.2188 92.2861 43.4473 92.2568 43.6582 92.1982C43.8691 92.1396 44.0596 92.0635 44.2295 91.9697C44.3994 91.876 44.5459 91.7705 44.6689 91.6533C44.792 91.5303 44.8887 91.4072 44.959 91.2842V89.6494H43.7109C43.3301 89.6494 43.0049 89.6875 42.7354 89.7637C42.4658 89.834 42.2461 89.9336 42.0762 90.0625C41.9062 90.1973 41.7803 90.3584 41.6982 90.5459C41.6162 90.7275 41.5752 90.9268 41.5752 91.1436C41.5752 91.3135 41.6045 91.4717 41.6631 91.6182C41.7275 91.7588 41.8184 91.8789 41.9355 91.9785C42.0527 92.0723 42.1963 92.1484 42.3662 92.207C42.542 92.2598 42.7441 92.2861 42.9727 92.2861ZM54.3809 92.2246C54.6211 92.2246 54.8496 92.1895 55.0664 92.1191C55.2832 92.0488 55.4736 91.9492 55.6377 91.8203C55.8018 91.6914 55.9277 91.5361 56.0156 91.3545C56.1094 91.1729 56.1504 90.9707 56.1387 90.748H58.4414C58.4531 91.2402 58.3506 91.6973 58.1338 92.1191C57.9229 92.541 57.6328 92.9043 57.2637 93.209C56.8945 93.5137 56.4639 93.7539 55.9717 93.9297C55.4854 94.0996 54.9697 94.1846 54.4248 94.1846C53.6865 94.1846 53.0391 94.0615 52.4824 93.8154C51.9258 93.5635 51.4629 93.2207 51.0938 92.7871C50.7188 92.3535 50.4346 91.8467 50.2412 91.2666C50.0537 90.6807 49.96 90.0537 49.96 89.3857V89.1221C49.96 88.4541 50.0537 87.8301 50.2412 87.25C50.4287 86.6641 50.71 86.1543 51.085 85.7207C51.46 85.2871 51.9229 84.9443 52.4736 84.6924C53.0303 84.4404 53.6748 84.3145 54.4072 84.3145C54.9932 84.3145 55.5352 84.4023 56.0332 84.5781C56.5312 84.7539 56.9619 85 57.3252 85.3164C57.6826 85.6387 57.9609 86.0283 58.1602 86.4854C58.3594 86.9365 58.4531 87.4434 58.4414 88.0059H56.1387C56.1504 87.7715 56.1152 87.5488 56.0332 87.3379C55.9512 87.127 55.8311 86.9453 55.6729 86.793C55.5146 86.6406 55.3242 86.5205 55.1016 86.4326C54.8789 86.3389 54.6357 86.292 54.3721 86.292C53.9854 86.292 53.666 86.3711 53.4141 86.5293C53.1621 86.6875 52.9629 86.8984 52.8164 87.1621C52.6641 87.4258 52.5557 87.7275 52.4912 88.0674C52.4326 88.4072 52.4033 88.7588 52.4033 89.1221V89.3857C52.4033 89.7549 52.4326 90.1123 52.4912 90.458C52.5498 90.7979 52.6553 91.0967 52.8076 91.3545C52.9541 91.6182 53.1533 91.8291 53.4053 91.9873C53.6631 92.1455 53.9883 92.2246 54.3809 92.2246ZM65.4639 82.1611V84.4902H69.0146V86.292H65.4639V90.3789C65.4639 90.7246 65.502 91.0146 65.5781 91.249C65.6602 91.4775 65.7744 91.6592 65.9209 91.7939C66.0674 91.9346 66.2432 92.0342 66.4482 92.0928C66.6592 92.1514 66.8936 92.1807 67.1514 92.1807C67.3389 92.1807 67.5293 92.1719 67.7227 92.1543C67.9219 92.1367 68.1123 92.1133 68.2939 92.084C68.4697 92.0605 68.6338 92.0342 68.7861 92.0049C68.9443 91.9756 69.0791 91.9463 69.1904 91.917L69.4277 93.5957C69.2578 93.6953 69.0586 93.7832 68.8301 93.8594C68.6016 93.9297 68.3584 93.9883 68.1006 94.0352C67.8428 94.082 67.5732 94.1172 67.292 94.1406C67.0166 94.1699 66.7441 94.1846 66.4746 94.1846C65.9531 94.1846 65.4785 94.1172 65.0508 93.9824C64.6289 93.8418 64.2686 93.625 63.9697 93.332C63.665 93.0449 63.4307 92.6787 63.2666 92.2334C63.1025 91.7822 63.0205 91.2432 63.0205 90.6162V86.292H60.8496V84.4902H63.0205V82.1611H65.4639Z" fill="#02F4BF"/>
</svg>
