<svg width="26" height="59" viewBox="0 0 26 59" fill="none" xmlns="http://www.w3.org/2000/svg">
<path d="M24.6844 2.98151C25.5025 2.85099 26.0598 2.082 25.9293 1.26392C25.7988 0.44584 25.0298 -0.11154 24.2117 0.0189773L24.6844 2.98151ZM16.5597 58.9926C17.3839 59.0762 18.1198 58.4759 18.2035 57.6518L19.5671 44.2208C19.6508 43.3966 19.0505 42.6606 18.2263 42.577C17.4021 42.4933 16.6661 43.0936 16.5825 43.9178L15.3704 55.8564L3.43175 54.6443C2.60756 54.5606 1.87159 55.1609 1.78791 55.9851C1.70423 56.8093 2.30454 57.5453 3.12873 57.629L16.5597 58.9926ZM24.2117 0.0189773C15.039 1.48241 8.77098 4.66562 4.89587 9.1072C1.00458 13.5673 -0.302042 19.0986 0.0571002 24.8869C0.768503 36.3524 8.02406 49.223 15.5488 58.4483L17.8736 56.5521C10.4985 47.5104 3.70522 35.2395 3.05134 24.7011C2.72785 19.4874 3.90949 14.8011 7.15644 11.0795C10.4196 7.3393 15.9398 4.37663 24.6844 2.98151L24.2117 0.0189773Z" fill="#E15544"/>
</svg>
