<svg id="Layer_1" data-name="Layer 1" xmlns="http://www.w3.org/2000/svg" viewBox="0 0 33.31 48"><defs><style>.cls-1{fill:#02f4bf;}.cls-2{fill:#e15544;}.cls-3{fill:none;stroke:#02f4bf;stroke-linecap:round;stroke-width:2px;}</style></defs><title>icon-location-hover</title><path class="cls-1" d="M0,17C0,25.23,9.34,35.2,16.72,41c6.47-5.36,15.89-13.91,16.56-24C33.8,9.46,27.34-.22,16.72,0,4,.27,0,10.27,0,17Z" transform="translate(0 0)"/><path class="cls-2" d="M20.53,15.15A3.9,3.9,0,0,1,16.61,19a3.89,3.89,0,0,1-3.67-4.1,3.89,3.89,0,0,1,3.92-3.87A3.89,3.89,0,0,1,20.53,15.15Z" transform="translate(0 0)"/><path class="cls-3" d="M22.94,40c6.82,3.65,1.17,7-6.36,7S3.4,43.35,9.76,40" transform="translate(0 0)"/></svg>